# AST/ASF file generated using VICON BodyLanguage
# -----------------------------------------------
:version 1.10
:name VICON
:units
  mass 1.0
  length 0.45
  angle deg
:documentation
   .ast/.asf automatically generated from VICON data using
   VICON BodyBuilder and BodyLanguage model FoxedUp or BRILLIANT.MOD
:root
   order TX TY TZ RX RY RZ
   axis XYZ
   position 0 0 0  
   orientation 0 0 0 
:bonedata
  begin
     id 1 
     name lhipjoint
     direction 0.650112 -0.723553 0.232005 
     length 2.45805 
     axis 0 0 0  XYZ
  end
  begin
     id 2 
     name lfemur
     direction 0.34202 -0.939693 0  
     length 7.00073  
     axis 0 0 20  XYZ
    dof rx ry rz
    limits (-160.0 20.0)
           (-70.0 70.0)
           (-60.0 70.0)
  end
  begin
     id 3 
     name ltibia
     direction 0.34202 -0.939693 0   
     length 7.8748   
     axis 0 0 20   XYZ
    dof rx
    limits (-10.0 170.0)
  end
  begin
     id 4 
     name lfoot
     direction 0.0542825 -0.14914 0.987325   
     length 1.75978   
     axis -90 7.62852e-016 20   XYZ
    dof rx rz
    limits (-45.0 90.0)
           (-70.0 20.0)
  end
  begin
     id 5 
     name ltoes
     direction 1.53509e-011 -4.21906e-011 1   
     length 0.893912   
     axis -90 7.62852e-016 20   XYZ
    dof rx
    limits (-90.0 20.0)
  end
  begin
     id 6 
     name rhipjoint
     direction -0.637897 -0.733345 0.235145   
     length 2.42522  
     axis 0 0 0  XYZ 
  end
  begin
     id 7 
     name rfemur
     direction -0.34202 -0.939693 0   
     length 7.02549   
     axis 0 0 -20   XYZ
    dof rx ry rz
    limits (-160.0 20.0)
           (-70.0 70.0)
           (-70.0 60.0)
  end
  begin
     id 8 
     name rtibia
     direction -0.34202 -0.939693 0   
     length 7.71512   
     axis 0 0 -20   XYZ
    dof rx
    limits (-10.0 170.0)
 end
 begin
     id 9 
     name rfoot
     direction -0.0822618 -0.226012 0.970645   
     length 1.90014  
     axis -90 -7.62852e-016 -20   XYZ
    dof rx rz
    limits (-45.0 90.0)
           (-20.0 70.0)
  end
  begin
     id 10 
     name rtoes
     direction -1.53542e-011 -4.21872e-011 1   
     length 0.957341   
     axis -90 -7.62852e-016 -20   XYZ
    dof rx
    limits (-90.0 20.0)
  end
  begin
     id 11 
     name lowerback
     direction -0.0022947 0.999774 -0.0211557   
     length 1.89909   
     axis 0 0 0   XYZ
    dof rx ry rz
    limits (-20.0 45.0)
           (-30.0 30.0)
           (-30.0 30.0)
  end
  begin
     id 12 
     name upperback
     direction 0.0107737 0.998635 0.0511027   
     length 1.8853   
     axis 0 0 0   XYZ
    dof rx ry rz
    limits (-20.0 45.0)
           (-30.0 30.0)
           (-30.0 30.0)
  end
  begin
     id 13 
     name thorax
     direction 0.011824 0.998136 0.0598754   
     length 1.88911   
     axis 0 0 0   XYZ
    dof rx ry rz
    limits (-20.0 45.0)
           (-30.0 30.0)
           (-30.0 30.0)
  end
  begin
     id 14 
     name lowerneck
     direction -0.0685355 0.990319 0.120714   
     length 1.91222   
     axis 0 0 0   XYZ
    dof rx ry rz
    limits (-20.0 45.0)
           (-30.0 30.0)
           (-30.0 30.0)
  end
  begin
     id 15 
     name upperneck
     direction 0.0886204 0.955665 -0.280805   
     length 1.92526   
     axis 0 0 0   XYZ
    dof rx ry rz
    limits (-20.0 45.0)
           (-30.0 30.0)
           (-30.0 30.0)
  end
  begin
     id 16
     name head
     direction 0.0233423 0.993502 -0.111393  
     length 1.96056  
     axis 0 0 0   XYZ
    dof rx ry rz
    limits (-20.0 45.0)
           (-30.0 30.0)
           (-30.0 30.0)
  end
  begin
     id 17 
     name lclavicle
     direction 0.941873 0.32922 0.0670041  
     length 3.31705  
     axis 0 0 0   XYZ
    dof ry rz
    limits (-20.0 10.0)
           (0.0 20.0)
  end
  begin
     id 18 
     name lhumerus
     direction 1 -4.4898e-011 3.38707e-028   
     length 5.29277   
     axis 180 -30 -90   XYZ
    dof rx ry rz
    limits (-60.0 90.0)
           (-90.0 90.0)
           (-90.0 90.0)
  end
  begin
     id 19
     name lradius
     direction 1 -4.48952e-011 1.63213e-028   
     length 2.85226   
     axis 180 -30 -90   XYZ
    dof rx
    limits (-10.0 170.0)
  end
  begin
     id 20
     name lwrist
     direction 1 -4.49001e-011 1.27856e-027   
     length 1.42613   
     axis -1.61767e-015 90 90   XYZ
    dof ry
    limits (-180.0 0.0)
 end
  begin
     id 21 
     name lhand
     direction 1 -4.48976e-011 2.55931e-027   
     length 0.602097   
     axis -1.63363e-015 90 90   XYZ
    dof rx rz
    limits (-90.0 90.0)
           (-45.0 45.0)
  end
  begin
     id 22 
     name lfingers
     direction 1 -4.48986e-011 5.11684e-027   
     length 0.485426   
     axis -3.26723e-015 90 90   XYZ
    dof rx
    limits (0.0 90.0)
  end
  begin
     id 23
     name lthumb
     direction 0.707107 -6.34915e-011 0.707107   
     length 0.696978   
     axis -90 45 -2.25915e-014   XYZ
    dof rx rz
    limits (-45.0 45.0)
           (-45.0 45.0)
  end
  begin
     id 24 
     name rclavicle
     direction -0.939974 0.327078 0.0973096   
     length 3.10337  
     axis 0 0 0   XYZ 
    dof ry rz
    limits (-10.0 20.0)
           (-20.0 0.0)
  end
  begin
     id 25 
     name rhumerus
     direction -1 -4.48975e-011 1.83745e-027  
     length 5.13304   
     axis 180 30 90   XYZ
    dof rx ry rz
    limits (-90.0 60.0)
           (-90.0 90.0)
           (-90.0 90.0)
  end
  begin
     id 26 
     name rradius
     direction -1 -4.48977e-011 7.1775e-029   
     length 2.74305   
     axis 180 30 90   XYZ
    dof rx
    limits (-10.0 170.0)
  end
  begin
     id 27 
     name rwrist
     direction -1 -4.48977e-011 1.27963e-027   
     length 1.37152   
     axis -1.61767e-015 -90 -90   XYZ
    dof ry
    limits (-180.0 0.0)
  end
  begin
     id 28
     name rhand
     direction -1 -4.4888e-011 2.56782e-027   
     length 0.767976   
     axis -1.63363e-015 -90 -90   XYZ
    dof rx rz
    limits (-90.0 90.0)
           (-45.0 45.0)
  end
  begin
     id 29
     name rfingers
     direction -1 -4.48947e-011 5.12384e-027   
     length 0.619162   
     axis -3.26723e-015 -90 -90   XYZ
    dof rx
    limits (0.0 90.0)
  end
  begin
     id 30
     name rthumb
     direction -0.707107 -6.34857e-011 0.707107   
     length 0.888997   
     axis -90 -45 2.25915e-014   XYZ
    dof rx rz
    limits (-45.0 45.0)
           (-45.0 45.0)
  end
:hierarchy
  begin
    root lhipjoint rhipjoint lowerback
    lhipjoint lfemur
    lfemur ltibia
    ltibia lfoot
    lfoot ltoes
    rhipjoint rfemur
    rfemur rtibia
    rtibia rfoot
    rfoot rtoes
    lowerback upperback
    upperback thorax
    thorax lowerneck lclavicle rclavicle
    lowerneck upperneck
    upperneck head
    lclavicle lhumerus
    lhumerus lradius
    lradius lwrist
    lwrist lhand lthumb
    lhand lfingers
    rclavicle rhumerus
    rhumerus rradius
    rradius rwrist
    rwrist rhand rthumb
    rhand rfingers
  end

#!OML:ASF F:\VICON\USERDATA\INSTALL\rory3\rory3.ASF
:FULLY-SPECIFIED
:DEGREES
925
root 0.584679 16.4315 0.423655 -5.10018 12.1762 -0.38041
lowerback -3.63133 5.02208 1.72508
upperback -5.18426 6.80082 3.86289
thorax -3.61097 3.43467 3.04737
lowerneck -16.2258 -9.66931 -12.9466
upperneck 31.2023 -15.8952 15.7074
head 16.4469 -6.26588 5.88129
rclavicle 9.93923e-015 5.56597e-015
rhumerus 57.2081 17.8691 -32.1822
rradius 76.4718
rwrist 18.1542
rhand 8.75169 19.737
rfingers 7.12502
rthumb 33.9414 -7.05973
lclavicle 9.93923e-015 5.56597e-015
lhumerus 25.8388 -16.6442 22.8417
lradius 71.7003
lwrist 14.8564
lhand 27.9011 26.6299
lfingers 7.12502
lthumb 51.8104 46.8475
rfemur -3.09957 -4.55165 16.2666
rtibia 38.8327
rfoot -30.4922 -9.42885
rtoes -20.7318
lfemur -9.52685 -8.74864 -19.6194
ltibia 42.9696
lfoot -26.2473 -7.14555
ltoes -11.2458
926
root 0.575775 16.4317 0.432395 -4.99718 11.7211 -0.403433
lowerback -3.85112 4.92671 1.50355
upperback -5.21254 6.66168 3.68438
thorax -3.51329 3.36913 3.00393
lowerneck -16.161 -9.70553 -12.8335
upperneck 30.9985 -16.0273 15.8592
head 16.3666 -6.30093 5.88699
rclavicle 3.26007e-014 8.74653e-015
rhumerus 57.6949 16.3798 -32.2322
rradius 76.2874
rwrist 17.9961
rhand 9.00735 20.032
rfingers 7.12502
rthumb 34.1842 -6.71069
lclavicle 3.26007e-014 8.74653e-015
lhumerus 25.1493 -17.9775 24.025
lradius 71.3608
lwrist 14.6855
lhand 29.2387 27.0413
lfingers 7.12502
lthumb 53.0212 46.5202
rfemur -3.21153 -4.20323 16.3744
rtibia 38.8
rfoot -30.4869 -9.33311
rtoes -20.9136
lfemur -9.5536 -8.32215 -19.4885
ltibia 42.9739
lfoot -26.3506 -7.034
ltoes -11.6807
927
root 0.567392 16.4329 0.443366 -4.93882 11.2045 -0.435687
lowerback -3.98984 4.91354 1.35256
upperback -5.24334 6.63255 3.41169
thorax -3.44885 3.35305 2.81748
lowerneck -16.332 -9.88144 -12.6052
upperneck 31.0074 -16.4062 15.9345
head 16.4814 -6.41545 5.78835
rclavicle 2.96189e-014 -2.38542e-015
rhumerus 57.9334 14.8206 -32.3591
rradius 76.0916
rwrist 17.8061
rhand 8.98904 20.1559
rfingers 7.12502
rthumb 34.1669 -6.59071
lclavicle 2.96189e-014 -2.38542e-015
lhumerus 24.6705 -19.7093 24.6921
lradius 71.3634
lwrist 15.0695
lhand 29.4597 27.6757
lfingers 7.12502
lthumb 53.2205 47.0275
rfemur -3.31624 -3.82632 16.4911
rtibia 38.7635
rfoot -30.4604 -9.17689
rtoes -20.8371
lfemur -9.50244 -7.84787 -19.3515
ltibia 42.9751
lfoot -26.4132 -7.05336
ltoes -11.3862
928
root 0.559757 16.4333 0.452389 -4.86238 10.6886 -0.548858
lowerback -4.07469 4.85736 1.28407
upperback -5.33133 6.55208 3.20244
thorax -3.47127 3.31014 2.64319
lowerneck -16.5514 -9.98917 -12.439
upperneck 31.2352 -16.6633 15.9212
head 16.6868 -6.48944 5.70199
rclavicle -1.02374e-013 -4.13472e-014
rhumerus 58.2736 13.4215 -32.4458
rradius 75.8539
rwrist 17.6529
rhand 9.13113 20.1782
rfingers 7.12502
rthumb 34.3018 -6.53806
lclavicle -1.02374e-013 -4.13472e-014
lhumerus 24.0309 -21.4492 25.4675
lradius 71.0579
lwrist 15.5857
lhand 29.0652 27.618
lfingers 7.12502
lthumb 52.8646 47.1958
rfemur -3.47929 -3.48823 16.6987
rtibia 38.7301
rfoot -30.3955 -9.13387
rtoes -21.0334
lfemur -9.49308 -7.37067 -19.1171
ltibia 42.9655
lfoot -26.498 -7.01462
ltoes -11.5742
929
root 0.554242 16.4355 0.462496 -4.79939 10.1775 -0.770032
lowerback -4.21714 4.77239 1.39461
upperback -5.4758 6.43057 3.01222
thorax -3.50228 3.24073 2.39297
lowerneck -16.3865 -9.93872 -12.3649
upperneck 31.3242 -16.7004 16.0418
head 16.711 -6.49264 5.74859
rclavicle 9.99887e-014 6.44062e-014
rhumerus 58.5358 12.2208 -32.5902
rradius 75.6631
rwrist 17.5034
rhand 9.49466 20.2089
rfingers 7.12502
rthumb 34.6469 -6.42885
lclavicle 9.99887e-014 6.44062e-014
lhumerus 23.2526 -23.1815 26.4289
lradius 70.5201
lwrist 15.8839
lhand 29.3523 27.6387
lfingers 7.12502
lthumb 53.1237 47.0525
rfemur -3.62042 -3.21134 16.9943
rtibia 38.6698
rfoot -30.3531 -8.98645
rtoes -21.0616
lfemur -9.48579 -6.92442 -18.7707
ltibia 42.9534
lfoot -26.6638 -6.96448
ltoes -12.2253
930
root 0.548967 16.438 0.473133 -4.74131 9.67234 -0.837782
lowerback -4.37869 4.5982 1.29118
upperback -5.58814 6.19525 2.91945
thorax -3.52093 3.12505 2.36149
lowerneck -16.2099 -9.83639 -12.4238
upperneck 31.4155 -16.5553 16.0131
head 16.6847 -6.45695 5.79097
rclavicle 2.18663e-014 2.94201e-014
rhumerus 58.9577 11.3254 -32.635
rradius 75.5065
rwrist 17.4304
rhand 9.6855 20.2239
rfingers 7.12502
rthumb 34.828 -6.37212
lclavicle 2.18663e-014 2.94201e-014
lhumerus 22.0227 -24.7921 27.5809
lradius 70.0738
lwrist 15.8609
lhand 30.2485 27.9258
lfingers 7.12502
lthumb 53.9303 46.8109
rfemur -3.704 -2.90387 17.112
rtibia 38.5847
rfoot -30.3428 -8.77633
rtoes -20.896
lfemur -9.42448 -6.52509 -18.6191
ltibia 42.9347
lfoot -26.7554 -6.95986
ltoes -12.2424
931
root 0.542721 16.4406 0.483819 -4.68842 9.07636 -0.965723
lowerback -4.54178 4.36083 1.17261
upperback -5.6207 5.87646 2.94692
thorax -3.46709 2.971 2.46408
lowerneck -16.5429 -9.79182 -12.5102
upperneck 31.8012 -16.4206 15.7688
head 16.9089 -6.42149 5.7404
rclavicle 5.96354e-016 1.51076e-014
rhumerus 59.6828 10.4774 -32.6015
rradius 75.3501
rwrist 17.5178
rhand 9.61413 20.172
rfingers 7.12502
rthumb 34.7603 -6.43973
lclavicle 5.96354e-016 1.51076e-014
lhumerus 20.5154 -26.1679 28.7281
lradius 69.6214
lwrist 15.7119
lhand 31.0287 27.8315
lfingers 7.12502
lthumb 54.6294 46.2349
rfemur -3.81601 -2.49494 17.3287
rtibia 38.4838
rfoot -30.2281 -8.75216
rtoes -21.0174
lfemur -9.34832 -6.052 -18.3856
ltibia 42.9065
lfoot -26.815 -7.09181
ltoes -11.5441
932
root 0.536216 16.4456 0.495382 -4.65913 8.45381 -1.18846
lowerback -4.66063 4.16185 1.21686
upperback -5.66292 5.6056 2.92029
thorax -3.42706 2.83299 2.41717
lowerneck -16.9497 -9.80203 -12.4031
upperneck 32.1618 -16.3972 15.4563
head 17.1327 -6.41279 5.592
rclavicle -1.05356e-014 9.14409e-015
rhumerus 60.4046 9.49473 -32.5272
rradius 75.1183
rwrist 17.653
rhand 9.56438 20.0304
rfingers 7.12502
rthumb 34.7131 -6.59216
lclavicle -1.05356e-014 9.14409e-015
lhumerus 19.1747 -27.6195 29.7725
lradius 69.2385
lwrist 15.6024
lhand 31.7367 28.3188
lfingers 7.12502
lthumb 55.2612 46.2668
rfemur -3.95821 -2.04189 17.6706
rtibia 38.3995
rfoot -30.1934 -8.71349
rtoes -21.0812
lfemur -9.24408 -5.56249 -18.0464
ltibia 42.8647
lfoot -26.943 -7.10791
ltoes -11.3089
933
root 0.531106 16.4493 0.50725 -4.60871 7.83851 -1.30431
lowerback -4.72667 4.02133 1.27162
upperback -5.78192 5.413 2.74569
thorax -3.4842 2.72996 2.20525
lowerneck -16.8931 -9.73643 -12.2966
upperneck 32.1753 -16.3723 15.5048
head 17.1153 -6.3922 5.60382
rclavicle 6.2816e-014 9.54166e-015
rhumerus 60.9694 8.44121 -32.487
rradius 74.6899
rwrist 17.7712
rhand 9.45965 20.0695
rfingers 7.12502
rthumb 34.6137 -6.57586
lclavicle 6.2816e-014 9.54166e-015
lhumerus 18.0148 -29.3118 30.687
lradius 68.8434
lwrist 15.5116
lhand 32.0631 28.7054
lfingers 7.12502
lthumb 55.5516 46.4375
rfemur -4.09099 -1.61941 17.8692
rtibia 38.3411
rfoot -30.2557 -8.57438
rtoes -20.7386
lfemur -9.14459 -5.07469 -17.8428
ltibia 42.84
lfoot -27.0427 -6.97056
ltoes -11.5461
934
root 0.526052 16.4477 0.516786 -4.50081 7.25203 -1.24961
lowerback -4.82619 3.90821 1.17722
upperback -5.88531 5.25693 2.51111
thorax -3.5164 2.64948 2.01725
lowerneck -16.5637 -9.65858 -12.2283
upperneck 31.8325 -16.3607 15.786
head 16.8865 -6.37627 5.71025
rclavicle -2.47487e-014 8.74653e-015
rhumerus 61.4816 7.27247 -32.3195
rradius 74.2164
rwrist 17.791
rhand 9.27015 20.3334
rfingers 7.12502
rthumb 34.4338 -6.35305
lclavicle -2.47487e-014 8.74653e-015
lhumerus 16.8853 -30.9772 31.6344
lradius 68.4242
lwrist 15.3541
lhand 32.2763 28.4239
lfingers 7.12502
lthumb 55.7409 46.0127
rfemur -4.21585 -1.17846 17.8679
rtibia 38.3193
rfoot -30.1995 -8.50744
rtoes -20.894
lfemur -9.09107 -4.65203 -17.8437
ltibia 42.8204
lfoot -27.1558 -6.67743
ltoes -12.1729
935
root 0.517416 16.4456 0.523316 -4.37922 6.58603 -1.39061
lowerback -4.88824 3.80172 1.19234
upperback -6.00313 5.11158 2.37289
thorax -3.58585 2.57246 1.86469
lowerneck -16.4304 -9.6131 -12.0256
upperneck 31.7045 -16.3394 15.7433
head 16.7516 -6.36305 5.65166
rclavicle -3.72721e-014 -3.61788e-014
rhumerus 62.0386 6.14066 -32.0858
rradius 73.866
rwrist 17.8404
rhand 9.09376 20.2674
rfingers 7.12502
rthumb 34.2663 -6.45689
lclavicle -3.72721e-014 -3.61788e-014
lhumerus 15.6636 -32.616 32.6025
lradius 68.1646
lwrist 15.1098
lhand 32.6037 28.5801
lfingers 7.12502
lthumb 56.0313 45.9456
rfemur -4.42886 -0.647844 18.123
rtibia 38.323
rfoot -30.0311 -8.57402
rtoes -21.3721
lfemur -9.10936 -4.19836 -17.6044
ltibia 42.8131
lfoot -27.2718 -6.47338
ltoes -12.3263
936
root 0.508199 16.4477 0.532447 -4.25252 5.91057 -1.54271
lowerback -4.98523 3.66487 1.24228
upperback -6.09377 4.92235 2.22339
thorax -3.60307 2.47169 1.68405
lowerneck -16.5823 -9.55236 -11.9239
upperneck 31.8855 -16.2625 15.6146
head 16.8348 -6.32825 5.59857
rclavicle -5.46658e-015 9.93923e-015
rhumerus 62.7211 5.04317 -31.8625
rradius 73.4183
rwrist 17.848
rhand 8.71242 20.07
rfingers 7.12502
rthumb 33.9041 -6.73497
lclavicle -5.46658e-015 9.93923e-015
lhumerus 14.3375 -34.0501 33.6343
lradius 67.9224
lwrist 14.915
lhand 33.0991 29.1149
lfingers 7.12502
lthumb 56.4695 46.1344
rfemur -4.68168 -0.130557 18.3896
rtibia 38.3419
rfoot -29.9427 -8.47501
rtoes -21.1926
lfemur -9.10446 -3.76277 -17.3498
ltibia 42.7787
lfoot -27.3074 -6.50227
ltoes -11.2711
937
root 0.499699 16.4507 0.543925 -4.13446 5.27567 -1.63474
lowerback -5.11026 3.51559 1.26369
upperback -6.16172 4.71462 2.03861
thorax -3.58096 2.36192 1.48486
lowerneck -16.6612 -9.49182 -12.0152
upperneck 31.9696 -16.2314 15.7903
head 16.9298 -6.30686 5.7083
rclavicle -3.53837e-014 3.77691e-015
rhumerus 63.2405 3.99267 -31.7323
rradius 73.0845
rwrist 17.8698
rhand 8.6426 20.0212
rfingers 7.12502
rthumb 33.8378 -6.79841
lclavicle -3.53837e-014 3.77691e-015
lhumerus 13.0327 -35.3658 34.6931
lradius 67.5922
lwrist 14.7272
lhand 33.6859 29.273
lfingers 7.12502
lthumb 56.9867 45.87
rfemur -4.88679 0.3448 18.5748
rtibia 38.35
rfoot -29.9218 -8.40206
rtoes -21.4184
lfemur -9.05067 -3.37312 -17.1828
ltibia 42.7186
lfoot -27.3809 -6.40401
ltoes -10.8968
938
root 0.492125 16.4546 0.554818 -4.06941 4.6595 -1.64029
lowerback -5.21323 3.36151 1.05567
upperback -6.17047 4.50782 1.93616
thorax -3.53538 2.26404 1.49705
lowerneck -16.6603 -9.50239 -12.2013
upperneck 31.8054 -16.2809 16.0713
head 16.9201 -6.32771 5.84887
rclavicle -5.86415e-015 9.14409e-015
rhumerus 63.7925 2.91874 -31.5706
rradius 72.8614
rwrist 17.8118
rhand 9.17753 20.1815
rfingers 7.12502
rthumb 34.3458 -6.52484
lclavicle -5.86415e-015 9.14409e-015
lhumerus 11.6495 -36.4772 36.0006
lradius 67.2767
lwrist 14.4221
lhand 34.1281 29.1849
lfingers 7.12502
lthumb 57.3751 45.4541
rfemur -5.07673 0.751739 18.648
rtibia 38.3726
rfoot -29.9675 -8.31555
rtoes -21.4273
lfemur -8.89734 -2.99601 -17.1261
ltibia 42.6113
lfoot -27.4897 -6.16096
ltoes -11.462
